<svg width="93" height="88" viewBox="0 0 93 88" fill="none" xmlns="http://www.w3.org/2000/svg">
<path d="M92.0633 39.9192C92.6045 37.5103 91.3958 35.366 88.8904 34.2093C90.0829 32.2921 89.9847 29.9114 88.578 27.6877L88.5532 27.6519C87.0415 25.6928 84.9109 24.7009 82.7845 24.9433C80.6897 20.6411 77.8711 16.6718 74.3883 13.189C66.1578 4.95933 55.2153 0.425781 43.5754 0.425781C31.9355 0.425781 20.993 4.95848 12.7624 13.189C4.5327 21.4196 0 32.3621 0 44.002C0 55.6419 4.5327 66.5844 12.7633 74.815C20.9938 83.0455 31.9363 87.5782 43.5762 87.5782C55.2161 87.5782 66.1586 83.0455 74.3892 74.815C78.5685 70.6357 81.7875 65.7547 83.9497 60.4401C86.1477 59.4132 88.6283 58.2523 87.8746 54.4332C88.5319 54.0789 89.1277 53.5984 89.6203 52.9957C90.7906 51.5625 91.2097 49.664 90.6881 48.16C90.2349 46.8531 89.1149 45.938 87.5323 45.5829C87.4137 45.5513 87.2745 45.5351 87.1217 45.5342C87.1285 45.3302 87.1345 45.1262 87.1388 44.9222C89.8746 43.9073 91.6049 41.9567 92.0633 39.9192ZM91.1533 39.7151C90.6429 41.9875 88.2604 44.1309 84.4909 44.6132C84.4815 44.614 84.4729 44.6149 84.4636 44.6166C83.6108 44.7233 82.688 44.7464 81.6995 44.6661C79.4349 44.4314 77.7678 43.4147 76.7426 41.6426C75.4596 39.4249 75.5202 36.6353 76.0076 34.94C76.7631 35.6699 77.6824 36.2973 78.8126 36.7557C79.0499 36.8521 79.2898 36.9358 79.5305 37.0117C79.4691 37.7407 79.5698 38.9691 80.4285 39.8859C81.1447 40.6499 82.2143 41.034 83.621 41.034C84.1759 41.034 84.7837 40.9742 85.4427 40.8547L85.5007 40.8402C87.9873 40.0489 88.0001 39.0988 87.89 38.7275C87.7619 38.2939 87.3138 38.0472 86.7461 38.0549C86.6736 37.5171 86.5908 36.9819 86.4986 36.4492C87.1874 36.0634 87.8038 35.5691 88.3193 34.9776C90.5208 35.9242 91.6032 37.7151 91.1533 39.7151ZM86.8759 39.1151C86.8716 39.0732 86.8665 39.0323 86.8622 38.9904C86.9023 38.9947 86.9373 39.0015 86.9629 39.0092C86.945 39.0357 86.9177 39.0715 86.8759 39.1151ZM85.6185 36.8666C85.7747 37.7885 85.9002 38.7207 85.9958 39.6614C85.7901 39.7519 85.5442 39.8466 85.2463 39.9422C83.8285 40.1966 82.7136 40.1471 81.9138 39.8005C82.2006 39.1663 82.7213 38.1675 83.4273 37.4112C84.193 37.3259 84.9305 37.1432 85.6185 36.8666ZM81.131 39.2696C81.1242 39.2627 81.1165 39.2559 81.1097 39.2491C80.5361 38.637 80.4353 37.7954 80.4524 37.2576C81.0295 37.3805 81.6082 37.4488 82.1793 37.4642C81.7277 38.0822 81.3777 38.7395 81.131 39.2696ZM87.802 28.2041C89.1576 30.3595 89.1175 32.5729 87.6919 34.2793C85.8285 36.5098 82.321 37.1722 79.1635 35.891C74.7375 34.0958 73.8591 29.4624 73.2786 26.3962C73.055 25.2165 72.8937 24.3646 72.5744 23.8729L72.5309 23.8157C72.3123 23.5724 72.0972 23.4982 71.9077 23.4982C71.7182 23.4982 71.5552 23.5724 71.4417 23.6236C71.1856 23.7397 70.7997 23.9147 69.6661 23.2924C68.0272 22.4482 66.7049 20.3978 66.2918 18.8972C66.127 18.2996 66.1142 17.8063 66.2576 17.5775L66.2926 17.5092C66.3234 17.452 66.5658 17.2651 67.2521 17.1592C68.7425 16.9304 71.5253 17.277 73.0721 18.7606C73.6593 19.5032 73.7029 19.9804 73.7353 20.3304C73.7541 20.5344 73.7737 20.7452 73.8992 20.9322C74.0571 21.3368 74.3252 21.6347 74.6325 21.9762C75.201 22.6087 75.9803 23.4751 76.5668 25.7073C78.0495 31.3267 80.5967 32.3595 81.9829 32.4748C83.3496 32.59 84.6625 31.8815 85.1755 30.7428C85.3138 30.415 85.2113 30.1803 85.1388 30.0693C85.0517 29.9387 84.9322 29.8567 84.7948 29.8038C84.333 28.4577 83.8046 27.1363 83.2113 25.8439C84.8972 25.7739 86.5737 26.6224 87.802 28.2041ZM84.0991 30.7266C83.6945 31.2276 82.9518 31.6203 82.0606 31.5469C81.4238 31.494 80.1315 31.1201 78.9364 29.1491C79.4767 27.5528 80.6812 26.4013 82.2237 25.995C82.939 27.5255 83.5664 29.1047 84.0991 30.7266ZM1.79942 52.5808C4.28003 51.2501 4.79988 48.5902 5.34705 45.7792C5.88312 43.0272 6.43712 40.1812 8.89041 38.3016C11.6237 36.4603 13.6357 35.9695 15.4112 35.5367C17.3566 35.0621 19.0373 34.6524 21.0314 32.7317C22.1488 31.6553 23.0049 30.5004 23.8321 29.3838C25.8722 26.6301 27.7988 24.03 33.4848 22.2032C33.5872 22.1725 33.6914 22.1435 33.7938 22.1127C34.4468 23.7636 34.9889 25.6151 35.2791 27.622L35.3201 27.9045L35.5898 27.9967C36.9744 28.4696 38.3905 28.6924 39.7734 28.7291C43.0828 28.8187 46.2037 27.849 48.2532 26.7299L48.5084 26.5908L48.4956 26.3006C48.4145 24.4414 48.7158 22.5088 49.2502 20.6676C54.4923 21.534 59.4065 24.199 62.8722 29.978C62.8218 30.1427 62.7527 30.3015 62.6673 30.4517C61.2162 32.7121 57.6156 33.5281 55.0804 33.7697C54.2661 33.8372 53.4329 33.8798 52.6536 33.8013C50.196 33.5102 47.8272 32.6711 45.4004 32.0958C41.5497 31.1124 37.5676 30.3476 33.6529 31.1483C32.8019 31.1269 31.9449 31.1389 31.0895 31.2268C27.1749 31.5939 23.4403 33.4001 20.573 36.0711C19.9644 36.608 19.3455 37.2772 18.8017 37.8799C18.6191 38.1385 18.2085 38.6473 18.0403 38.9136C17.9276 39.0912 17.7031 39.4591 17.5913 39.6358C17.4325 39.8603 17.1218 40.5158 16.9895 40.7591C15.1141 44.5773 15.5273 48.9709 15.6971 53.0759C15.7791 55.2544 15.7799 57.4635 15.5392 59.6257C15.3497 61.4994 14.963 63.3424 14.217 65.071C13.8883 65.7709 13.4897 66.5469 13.062 67.1836C12.9144 67.3936 12.5166 67.992 12.3578 68.1704C11.7193 69.0104 10.9732 69.7863 10.2109 70.5264C6.10847 65.3765 3.16947 59.2612 1.79942 52.5808ZM40.6705 8.64866C41.5677 11.3196 43.5617 17.3718 44.1831 20.1767L44.4085 21.1925L45.0171 20.3483C46.2361 18.6573 48.1661 16.4396 50.8226 14.7264C48.9899 17.7994 47.4627 22.0607 47.5549 26.0445C44.6484 27.546 40.1123 28.444 36.16 27.2011C35.3482 22.0188 33.0042 17.9223 31.1698 15.3888C33.0221 16.2493 35.9961 17.9847 37.5762 20.7854L38.2778 22.0308L38.4451 20.6112C38.4545 20.5293 39.3372 13.1225 40.6705 8.64866ZM40.37 6.71095C39.688 6.69217 39.1477 6.12281 39.1664 5.43992C39.1852 4.75788 39.7546 4.21754 40.4375 4.23632C41.1195 4.2551 41.6599 4.82446 41.6419 5.50736C41.6223 6.18939 41.0521 6.72888 40.37 6.71095ZM24.2982 52.7063C23.3805 49.3849 22.4313 45.9252 23.1466 42.4834C23.6528 39.891 25.0553 37.5717 26.824 35.6357C29.693 32.9699 33.8117 31.0749 37.9389 31.1577C40.4417 31.1739 42.907 31.7475 45.2724 32.5362C47.6702 33.3045 50.0244 34.3553 52.5742 34.6344C55.4116 34.8069 58.8295 34.1376 61.1838 32.4901C61.9375 31.9472 62.7501 31.1756 63.0028 30.2554C62.9285 31.6988 62.1287 33.144 61.3476 34.2973C59.3766 37.0664 56.2661 39.1637 52.8286 39.4104C51.3655 39.5043 49.9212 39.3251 48.47 39.0843C44.213 38.3417 39.7776 37.1961 35.4182 38.0771C32.2214 38.69 29.396 40.48 27.1424 42.7796C24.4595 45.4241 24.1018 49.1382 24.2982 52.7063ZM10.3142 70.6536C10.4602 70.5495 10.5908 70.4564 10.5908 70.4564C11.4939 69.8111 12.3143 69.0343 13.0492 68.202C14.3331 66.7031 15.2806 64.9173 15.7902 63.0103C16.7266 59.7615 16.2315 56.3649 15.9985 53.0597C15.657 48.6337 15.9054 43.9286 18.3561 40.1035C18.4663 39.9362 18.6891 39.6076 18.7992 39.4394C18.9639 39.2107 19.3463 38.7352 19.5282 38.5013C20.06 37.9439 20.666 37.3182 21.2482 36.812C21.8159 36.2819 22.4945 35.7356 23.1082 35.2695C23.4821 35.0117 24.054 34.5883 24.4382 34.3647C26.0165 33.3583 27.7741 32.5721 29.5769 32.0744C30.4297 31.8303 31.2927 31.6621 32.1642 31.5332C29.9423 32.2366 27.8979 33.4744 26.1531 35.0049C26.0105 35.1662 25.5803 35.6221 25.4488 35.7757C25.0989 36.1965 24.6925 36.6985 24.3767 37.1543C21.4616 41.273 21.512 45.9013 23.0997 50.5177C23.4958 51.7631 23.996 52.9667 24.4015 54.2019C25.1484 63.6778 28.3238 72.4419 19.5657 79.2256C16.0753 76.838 12.9562 73.9451 10.3142 70.6536ZM19.7347 79.3417C21.8252 78.0911 23.6912 76.3361 24.8709 74.1713C27.0639 70.2507 26.9205 65.502 26.2299 61.2058C25.419 55.6265 22.6934 48.317 27.0895 43.6367C28.521 42.2376 30.2001 41.0511 32.0302 40.2444C35.5539 38.6225 39.4131 38.742 43.1511 39.4454C45.9074 39.9294 48.7278 40.6686 51.5772 40.6977C55.0019 40.7736 58.3122 39.1082 60.5265 36.5431C61.7932 35.1005 63.2051 32.7437 63.2469 30.6276C65.3118 34.3664 65.591 37.7185 64.0715 40.5986C61.6072 45.2696 54.797 47.7298 49.1409 48.096C44.5647 48.3922 40.3999 49.8894 37.4123 52.3128C34.5552 54.6295 32.959 57.5719 32.9171 60.5989C32.9043 61.4977 32.9675 62.5152 33.0341 63.5933C33.3943 69.4235 33.8851 77.392 23.7143 81.7267C22.3425 81.0028 21.0135 80.2073 19.7347 79.3417ZM58.3796 55.7674C58.3984 56.8993 58.8337 57.9868 59.3186 58.9889C59.8316 59.9732 59.4791 60.7858 58.4419 61.146C57.7147 61.4602 56.2618 61.321 55.7146 62.0065C55.5414 61.8981 55.3399 61.8178 55.1214 61.764C53.6472 61.3791 52.2199 61.7231 50.7731 61.3876C52.0458 62.05 53.6019 61.9023 54.931 62.3727C55.1965 62.476 55.5166 62.6142 55.5815 62.8848C55.596 62.9813 55.6148 63.0974 55.6062 63.1896C55.5704 63.9331 54.5529 63.9459 54.0006 63.7239L53.8879 63.6821C52.7458 63.1631 51.648 62.4401 50.8072 61.5028C51.4927 62.6125 52.447 63.5251 53.5183 64.2745C53.6412 64.6433 53.3279 65.0445 52.9677 65.1691C52.5486 65.327 52.0834 65.1486 51.7607 64.6885C51.0556 63.7718 50.6826 62.5639 50.7722 61.3876C50.429 62.3308 50.5699 63.7794 51.1478 64.7978C50.4717 65.1239 50.4 65.9485 50.243 66.6186C50.1516 66.9805 49.9963 67.3032 49.776 67.572C49.5882 67.8264 49.1785 68.1013 48.9702 68.2165C47.5054 68.6536 45.7068 67.8307 44.4794 67.0172C42.9932 66.0355 41.8144 64.68 40.7354 63.2664C38.8284 60.7593 37.28 58.0346 35.8689 55.2168C36.4622 54.4392 37.1767 53.7051 38.0013 53.0358C40.8404 50.7336 44.8182 49.3098 49.2033 49.0255C51.6198 48.8693 54.4086 48.3324 57.013 47.326C57.2904 47.7255 57.5695 48.1105 57.9195 48.4476C58.1859 48.6892 58.5017 48.8915 58.71 49.1869C58.7381 49.2236 58.7646 49.2714 58.803 49.3004C59.0736 49.4788 59.3784 49.2808 59.6199 49.1766C59.9332 49.0136 60.2064 48.8079 60.4257 48.4861C60.4787 48.3981 60.541 48.3196 60.5683 48.1386C60.5768 47.5624 59.7198 46.8454 59.0454 46.4186C61.1692 45.3302 63.0472 43.8748 64.3216 41.9926C64.4027 45.017 63.311 47.5522 61.2896 49.8928C60.5948 50.7422 59.8461 51.4865 59.194 52.4033C58.9473 52.7362 58.745 53.2125 58.6434 53.6419C58.4573 54.3342 58.3557 55.0435 58.3796 55.7674ZM38.4118 67.0121C38.4323 67.2024 38.4682 67.3894 38.51 67.5746C36.5851 66.9916 34.9146 66.1149 34.02 64.4487C34.0021 64.138 33.9833 63.8324 33.9654 63.5362C33.8996 62.476 33.8382 61.4755 33.8501 60.6117C33.8749 58.7969 34.5672 56.9582 35.8023 55.3073C36.5783 57.8024 37.682 60.2088 39.0862 62.4188C38.8557 62.8191 38.7354 63.2835 38.6176 63.7231C38.3555 64.7987 38.2701 65.9092 38.4118 67.0121ZM57.3766 47.1826C57.8384 46.9948 58.2934 46.7916 58.739 46.5731C59.1163 47.1314 59.5542 47.629 59.9392 48.125C59.9332 48.1446 59.9255 48.1677 59.9144 48.1881C59.7898 48.428 59.596 48.6849 59.4108 48.8966C59.2862 49.0272 58.984 49.3226 58.8645 49.0802L58.7962 48.9777C58.6152 48.7071 58.4897 48.3947 58.313 48.1173C58.0587 47.7656 57.7454 47.4284 57.3766 47.1826ZM24.7847 82.2747C29.1143 80.2704 31.8655 77.4305 33.1809 73.6156C33.9765 71.3075 34.1404 68.9105 34.1079 66.6962C36.825 69.3621 41.4345 69.2033 44.9625 70.0245C46.2412 70.3301 47.63 70.8013 48.324 71.9648C49.5771 74.3233 48.1234 77.655 46.9617 79.8223C46.2813 81.0703 45.4986 82.2653 44.6765 83.4339C43.9399 84.5086 43.1076 85.5261 42.417 86.6299C36.1045 86.46 30.1309 84.9098 24.7847 82.2747ZM43.5754 86.6452C43.2937 86.6452 43.0137 86.6401 42.7337 86.6341C42.825 86.4916 42.9113 86.3456 43.012 86.2082C43.6787 85.3657 44.3402 84.5172 44.9787 83.6499C47.158 80.646 50.7568 75.4074 48.9421 71.6139C47.4115 68.9242 43.0197 68.7611 39.2817 67.7897C39.1946 67.5763 39.1451 67.345 39.1127 67.1171C38.9599 65.8512 39.2544 64.5665 39.729 63.3842C39.8878 63.6121 40.0482 63.8392 40.213 64.0628C41.77 66.2003 43.828 68.1764 46.4674 68.8525C47.2476 69.0343 48.1021 69.1265 48.8874 68.8994C49.0103 68.8695 49.1444 68.8013 49.2647 68.7415C49.6062 68.5068 49.9314 68.2216 50.1704 67.864C50.4145 67.508 50.5392 67.0872 50.5912 66.6886C50.6749 65.9971 50.6023 65.2605 51.1717 64.8422C51.4005 65.2323 51.6958 65.5567 52.0535 65.7581C52.9779 66.2455 54.173 65.5558 54.3011 64.6015C55.2528 64.7338 56.3309 64.3129 56.3395 63.2109C56.3574 62.6706 56.1278 62.2865 55.7599 62.0381C56.0638 61.776 56.5179 61.7427 56.9208 61.7214C57.4517 61.6975 57.9998 61.7094 58.5657 61.5865C59.4723 61.4158 60.337 60.5673 60.2123 59.5882C60.1808 59.2672 60.0886 58.983 59.9938 58.72C59.8009 58.1942 59.5994 57.7196 59.4637 57.2305C59.112 56.0115 59.252 54.7157 59.6438 53.5241C59.9076 52.8506 60.4556 52.2872 60.9319 51.7008C60.9669 51.6598 61.0019 51.618 61.0378 51.5761C60.6767 52.5458 60.4001 53.548 60.2533 54.58C59.8197 57.3765 60.5248 59.6189 61.6908 61.8946C61.8137 63.4141 61.8675 64.9438 61.806 66.4658C61.6788 68.3087 61.404 70.1961 60.5905 71.87L60.3703 72.3224C60.0331 72.8986 59.6626 73.4808 59.2307 73.9921C57.9289 75.6302 56.2413 76.8893 54.4538 77.9751C53.112 78.8005 51.6565 79.5099 50.3992 80.5077C48.4188 82.0562 46.8362 84.1911 46.027 86.5718C45.216 86.6196 44.3991 86.6452 43.5754 86.6452ZM59.7309 83.4638C55.5371 85.1873 51.0104 86.2594 46.2771 86.5573C46.9096 85.5313 47.5822 84.5539 48.3565 83.6627C49.2425 82.6102 50.2694 81.6951 51.3083 80.7971C52.8695 79.4177 54.6058 78.1851 56.3881 77.0796C57.433 76.4104 58.4838 75.7104 59.4082 74.8756C62.3652 72.1312 63.0796 68.2046 62.5547 64.3454C62.5094 63.9476 62.4488 63.5524 62.3788 63.1597C62.4966 63.3671 62.617 63.5754 62.7399 63.7863C63.8752 65.8324 64.9883 67.9272 65.4791 70.2319C66.1962 73.4202 65.27 76.3566 63.5602 79.0515C62.5034 80.7109 61.1496 82.1006 59.7309 83.4638ZM61.0361 82.9038C61.6293 82.4378 62.1944 81.9358 62.722 81.3912C64.4215 79.6738 65.6823 77.4023 65.9324 74.9627C66.2107 72.564 65.8983 70.1525 65.2871 67.8298C64.075 63.0018 60.6093 59.9339 60.9849 54.6543C61.0463 53.4157 61.2845 52.1796 61.573 50.9436C61.7079 50.7806 61.8427 50.6167 61.9725 50.4477C63.9896 47.9577 65.0771 44.9717 64.4283 41.8236C64.5948 41.5675 64.7527 41.3054 64.8961 41.0331C66.4557 38.0771 66.3191 34.7104 64.4975 31.0083C66.961 32.7889 69.1796 36.9187 68.6725 43.9482C68.4617 45.2884 68.1262 46.5057 67.801 47.6828C67.0942 50.2454 66.4275 52.6654 67.2026 55.7554C68.04 59.5566 70.3191 61.3159 72.524 63.018C74.746 64.7329 76.845 66.3556 77.3128 70.0484C73.0482 75.5636 67.4638 80.0075 61.0361 82.9038ZM73.096 62.2805C70.9278 60.6065 68.88 59.0256 68.1125 55.542C67.3938 52.6765 67.9999 50.4775 68.7024 47.9312C69.0353 46.7233 69.3802 45.4736 69.5987 44.0737L69.603 44.0353C70.2338 35.3643 66.827 30.7949 63.6541 29.4675C60.4283 24.1068 55.6745 20.8554 49.52 19.8029C50.2267 17.6867 51.2195 15.7337 52.2592 14.21C52.5366 14.3517 52.8482 14.437 53.1803 14.4456C54.3762 14.478 55.3766 13.5305 55.4082 12.3346C55.4406 11.1387 54.4931 10.1391 53.2972 10.1066C52.1004 10.0742 51.1017 11.0217 51.0693 12.2176C51.0582 12.6205 51.1606 13.0004 51.3441 13.3299C48.4615 14.9381 46.3061 17.1584 44.8601 19.0056C43.9407 15.4272 41.8374 9.17449 41.257 7.4664C42.0107 7.14203 42.5502 6.40451 42.5732 5.53211C42.6057 4.33619 41.6581 3.33661 40.4622 3.30417C39.2655 3.27174 38.2659 4.21925 38.2343 5.41516C38.2053 6.50182 38.9846 7.42372 40.0243 7.6081C38.8617 11.049 38.0175 16.7213 37.6803 19.2412C35.0307 15.679 30.4536 14.0529 29.8945 13.8643L29.7348 13.8105C29.7323 13.813 29.7297 13.8156 29.7272 13.819C29.8723 13.5382 29.9593 13.2232 29.9687 12.8869C30.0012 11.6909 29.0537 10.6914 27.8577 10.6589C26.661 10.6265 25.6622 11.574 25.6298 12.7699C25.5974 13.9667 26.5449 14.9654 27.7408 14.9979C28.3196 15.0132 28.8505 14.799 29.25 14.4387L29.3849 14.6026C30.3085 15.7243 32.0456 18.0623 33.4336 21.2472C33.3584 21.2685 33.2833 21.2899 33.2082 21.3121C27.2286 23.2327 25.1211 26.0769 23.0835 28.8281C22.2418 29.9643 21.4462 31.0373 20.3852 32.0599C18.5721 33.8056 17.08 34.1692 15.1909 34.6302C13.3369 35.0826 11.2353 35.5947 8.3586 37.5359L8.33641 37.5521C5.59204 39.6469 4.97573 42.8104 4.43283 45.6017C3.9309 48.1796 3.49043 50.434 1.61419 51.6111C1.16775 49.1416 0.933855 46.5996 0.933855 44.0029C0.933855 20.4892 20.0634 1.35964 43.5771 1.35964C60.3233 1.35964 74.8433 11.0644 81.8148 25.1448C80.3269 25.5938 79.09 26.654 78.3764 28.0812C78.0512 27.3667 77.743 26.5072 77.4707 25.4734C76.828 23.0227 75.9257 22.0197 75.3282 21.3556C75.049 21.0449 74.8467 20.8204 74.7554 20.5557L74.7238 20.4653L74.6862 20.4243C74.6786 20.3842 74.6717 20.3073 74.6666 20.2493C74.6282 19.8319 74.5642 19.1328 73.7848 18.1588L73.7456 18.1161C71.8591 16.2808 68.5103 15.942 66.8398 16.2902C66.4711 16.3671 66.1706 16.4746 65.9392 16.6129C65.0165 16.0743 64.1441 15.4383 63.2845 14.8075C62.9618 14.5668 62.6409 14.3252 62.325 14.0691C62.5572 14.4037 62.8278 14.711 63.1069 15.0072C63.8402 15.7644 64.6102 16.4592 65.4954 17.0389C65.4877 17.0525 65.4791 17.0653 65.4723 17.079C64.9243 16.7486 64.2986 16.5608 63.6977 16.35C62.9456 16.1212 62.1799 15.8916 61.3929 15.8404C62.5982 16.3688 63.9068 16.9381 65.0686 17.5493C65.1283 17.5843 65.1975 17.6244 65.2632 17.6663C65.1949 18.0751 65.2367 18.5754 65.3946 19.1481C65.8718 20.8818 67.346 23.1482 69.2299 24.1187C70.6427 24.8947 71.3119 24.7103 71.8283 24.4764C71.8335 24.4747 71.8386 24.4721 71.8437 24.4696C72.0392 24.852 72.1911 25.6544 72.3653 26.572C72.7665 28.6881 73.3546 31.7885 75.2889 34.159C74.6094 35.9652 74.3832 39.4224 75.9385 42.1112C76.6581 43.3558 77.6816 44.2897 78.9586 44.8855C78.2586 46.8804 77.4946 52.1216 81.7824 54.2582C82.3961 54.6304 83.0534 54.883 83.7235 55.0239C84.0897 56.1652 83.3718 56.8831 82.064 58.0466C80.6948 59.2638 78.9919 60.7781 79.137 63.5165L79.2497 65.6463L80.0359 63.6633C80.5267 62.4265 81.5254 61.6829 82.6428 61.0837C81.4068 63.8998 79.8796 66.5597 78.0913 69.0198C77.3589 65.572 75.195 63.9015 73.096 62.2805ZM52.0006 12.2424C52.0193 11.5603 52.5887 11.02 53.2716 11.0388C53.9536 11.0576 54.494 11.6269 54.476 12.3098C54.4573 12.9919 53.8879 13.5322 53.205 13.5134C52.523 13.4946 51.9826 12.9244 52.0006 12.2424ZM29.0366 12.8613C29.0178 13.5433 28.4484 14.0836 27.7656 14.0649C27.0835 14.0461 26.5432 13.4767 26.562 12.7938C26.5807 12.1118 27.1501 11.5714 27.833 11.5902C28.515 11.609 29.0554 12.1792 29.0366 12.8613ZM83.5519 59.5959C82.4661 60.1029 81.2864 60.6552 80.3688 61.5395C80.8383 60.3795 81.7696 59.5515 82.6804 58.7422C83.8165 57.7324 84.9834 56.6936 84.7128 55.146C84.8059 55.1502 84.8989 55.1553 84.9919 55.1553C85.6765 55.1553 86.3543 55.0401 86.9962 54.8182C87.4948 57.7521 85.7414 58.5732 83.5519 59.5959ZM87.2907 46.4843L87.3172 46.4911C88.5959 46.7754 89.4564 47.4583 89.8055 48.4656C90.2238 49.6709 89.867 51.2176 88.8964 52.4059C87.9267 53.5941 86.2109 54.4067 84.3884 54.1984C84.3876 54.1959 84.3867 54.1942 84.385 54.1916L84.3748 54.1967C83.6688 54.1139 82.9467 53.8783 82.2459 53.4507L82.21 53.431C78.5292 51.6103 79.2044 47.0144 79.8233 45.2261C80.3816 45.4062 80.9791 45.53 81.6125 45.5957C82.0384 45.6299 82.4524 45.6469 82.8562 45.6469C83.0542 45.6469 83.2489 45.6418 83.4409 45.6341C82.7375 46.8138 82.4063 48.6278 82.9894 49.7784C83.2412 50.2744 83.8063 50.9291 85.0363 50.9291C85.575 50.9291 86.2425 50.8036 87.0654 50.4835C87.3052 50.3905 87.4248 50.1199 87.3317 49.88C87.2463 49.6606 87.0133 49.5437 86.7905 49.5966C86.9228 48.5612 87.0193 47.5181 87.0773 46.4673C87.1678 46.4621 87.2404 46.4698 87.2907 46.4843ZM85.808 49.8988C85.2301 50.0294 84.6599 50.0473 84.2493 49.8074C84.2604 48.3922 84.8844 47.577 85.4316 47.1356C85.6637 46.9487 85.9028 46.8087 86.1315 46.7054C86.0632 47.781 85.9548 48.8463 85.808 49.8988ZM86.1827 45.6905C85.7414 45.8296 85.2736 46.0652 84.846 46.4092C84.4098 46.7609 83.9343 47.2927 83.6313 48.0635C83.7149 47.0366 84.2134 45.9175 84.7248 45.5189C85.2403 45.4472 85.7312 45.3456 86.1998 45.2193C86.1947 45.3772 86.1887 45.5343 86.1827 45.6905Z" fill="white"/>
</svg>
