<svg width="39" height="39" viewBox="0 0 39 39" fill="none" xmlns="http://www.w3.org/2000/svg">
<rect width="39" height="39" fill="white"/>
<line x1="6.19531" y1="31.5" x2="33.3692" y2="31.5" stroke="#ADA8CC" stroke-linecap="round"/>
<path d="M1 8L6.21739 28.8696H32.8261L38.0435 8" stroke="#ADA8CC" stroke-linecap="round"/>
<path d="M3.60938 16.1086C3.60938 16.1086 10.4194 9.60205 11.6963 16.1086C12.5141 20.2755 15.6012 17.9957 17.7156 15.8173C18.9179 14.5787 20.8957 14.3788 22.3395 15.3249C31.5471 21.3584 28.4894 8.10074 35.9572 16.1086" stroke="#ADA8CC" stroke-linecap="round"/>
<path d="M18.4174 21.8135L17.5054 23.0435C17.8334 23.1035 18.0974 23.2435 18.2974 23.4635C18.4974 23.6835 18.5974 23.9555 18.5974 24.2795C18.5974 24.6915 18.4574 25.0135 18.1774 25.2455C17.8934 25.4815 17.5534 25.5995 17.1574 25.5995C16.8294 25.5995 16.5434 25.5255 16.2994 25.3775C16.0554 25.2295 15.8814 25.0195 15.7774 24.7475L16.2454 24.4715C16.3694 24.8595 16.6734 25.0535 17.1574 25.0535C17.4214 25.0535 17.6334 24.9855 17.7934 24.8495C17.9574 24.7095 18.0394 24.5195 18.0394 24.2795C18.0394 24.0395 17.9574 23.8495 17.7934 23.7095C17.6334 23.5695 17.4214 23.4995 17.1574 23.4995H17.0134L16.7914 23.1575L17.7634 21.8435H15.8974V21.3215H18.4174V21.8135ZM21.9043 25.0055C21.6243 25.4015 21.2263 25.5995 20.7103 25.5995C20.1943 25.5995 19.7963 25.4015 19.5163 25.0055C19.2323 24.6055 19.0903 24.0775 19.0903 23.4215C19.0903 22.7655 19.2323 22.2375 19.5163 21.8375C19.7963 21.4415 20.1943 21.2435 20.7103 21.2435C21.2263 21.2435 21.6243 21.4415 21.9043 21.8375C22.1883 22.2375 22.3303 22.7655 22.3303 23.4215C22.3303 24.0775 22.1883 24.6055 21.9043 25.0055ZM19.6483 23.4215C19.6483 23.9415 19.7403 24.3435 19.9243 24.6275C20.1083 24.9115 20.3703 25.0535 20.7103 25.0535C21.0503 25.0535 21.3123 24.9115 21.4963 24.6275C21.6843 24.3435 21.7783 23.9415 21.7783 23.4215C21.7783 22.9015 21.6843 22.4995 21.4963 22.2155C21.3123 21.9275 21.0503 21.7835 20.7103 21.7835C20.3703 21.7835 20.1083 21.9255 19.9243 22.2095C19.7403 22.4935 19.6483 22.8975 19.6483 23.4215ZM23.4768 22.5215C23.2048 22.5215 22.9788 22.4315 22.7988 22.2515C22.6188 22.0715 22.5288 21.8515 22.5288 21.5915C22.5288 21.3315 22.6188 21.1115 22.7988 20.9315C22.9788 20.7515 23.2048 20.6615 23.4768 20.6615C23.7488 20.6615 23.9748 20.7515 24.1548 20.9315C24.3348 21.1115 24.4248 21.3315 24.4248 21.5915C24.4248 21.8515 24.3348 22.0715 24.1548 22.2515C23.9828 22.4315 23.7568 22.5215 23.4768 22.5215ZM23.0028 21.5915C23.0028 21.7275 23.0468 21.8415 23.1348 21.9335C23.2228 22.0255 23.3368 22.0715 23.4768 22.0715C23.6168 22.0715 23.7308 22.0255 23.8188 21.9335C23.9068 21.8415 23.9508 21.7275 23.9508 21.5915C23.9508 21.4555 23.9068 21.3415 23.8188 21.2495C23.7308 21.1575 23.6168 21.1115 23.4768 21.1115C23.3368 21.1115 23.2228 21.1575 23.1348 21.2495C23.0468 21.3415 23.0028 21.4555 23.0028 21.5915Z" fill="#ADA8CC"/>
</svg>
