<svg width="24" height="24" viewBox="0 0 24 24" fill="none" xmlns="http://www.w3.org/2000/svg">
<g id="truck">
<path id="Vector" d="M15 3H2C1.44772 3 1 3.44772 1 4V15C1 15.5523 1.44772 16 2 16H15C15.5523 16 16 15.5523 16 15V4C16 3.44772 15.5523 3 15 3Z" stroke="#303030" stroke-width="2" stroke-linecap="round" stroke-linejoin="round"/>
<path id="Vector_2" d="M16 9C16 8.44772 16.4477 8 17 8H17.9289C19.255 8 20.5268 8.52678 21.4645 9.46447L21.5355 9.53553C22.4732 10.4732 23 11.745 23 13.0711V15C23 15.5523 22.5523 16 22 16H17C16.4477 16 16 15.5523 16 15V9Z" stroke="#303030" stroke-width="2" stroke-linecap="round" stroke-linejoin="round"/>
<path id="Vector_3" d="M5.5 21C6.88071 21 8 19.8807 8 18.5C8 17.1193 6.88071 16 5.5 16C4.11929 16 3 17.1193 3 18.5C3 19.8807 4.11929 21 5.5 21Z" stroke="#303030" stroke-width="2" stroke-linecap="round" stroke-linejoin="round"/>
<path id="Vector_4" d="M18.5 21C19.8807 21 21 19.8807 21 18.5C21 17.1193 19.8807 16 18.5 16C17.1193 16 16 17.1193 16 18.5C16 19.8807 17.1193 21 18.5 21Z" stroke="#303030" stroke-width="2" stroke-linecap="round" stroke-linejoin="round"/>
</g>
</svg>
